<?xml version="1.0" encoding="UTF-8" standalone="no"?>
<svg
   xmlns:dc="http://purl.org/dc/elements/1.1/"
   xmlns:cc="http://creativecommons.org/ns#"
   xmlns:rdf="http://www.w3.org/1999/02/22-rdf-syntax-ns#"
   xmlns:svg="http://www.w3.org/2000/svg"
   xmlns="http://www.w3.org/2000/svg"
   xmlns:xlink="http://www.w3.org/1999/xlink"
   xmlns:sodipodi="http://sodipodi.sourceforge.net/DTD/sodipodi-0.dtd"
   xmlns:inkscape="http://www.inkscape.org/namespaces/inkscape"
   version="1.1"
   id="Layer_1"
   x="0px"
   y="0px"
   width="192"
   height="192"
   viewBox="0 0 192 192"
   xml:space="preserve"
   inkscape:version="0.92.2 (5c3e80d, 2017-08-06)"
   sodipodi:docname="icon_materialized.svg"
   inkscape:export-xdpi="96"
   inkscape:export-ydpi="96"
   inkscape:export-filename="C:\Users\Therh\Desktop\icon_shaded.png"><metadata
     id="metadata9"><rdf:RDF><cc:Work
         rdf:about=""><dc:format>image/svg+xml</dc:format><dc:type
           rdf:resource="http://purl.org/dc/dcmitype/StillImage" /><dc:title /></cc:Work></rdf:RDF></metadata><defs
     id="defs7"><linearGradient
       inkscape:collect="always"
       id="linearGradient5036"><stop
         style="stop-color:#ffffff;stop-opacity:0.1"
         offset="0"
         id="stop5032" /><stop
         style="stop-color:#ffffff;stop-opacity:0"
         offset="1"
         id="stop5034" /></linearGradient><linearGradient
       inkscape:collect="always"
       id="linearGradient4611"><stop
         id="stop4609"
         offset="0"
         style="stop-color:#1a237e;stop-opacity:1" /><stop
         id="stop4607"
         offset="1"
         style="stop-color:#000000;stop-opacity:0" /></linearGradient><linearGradient
       inkscape:collect="always"
       id="linearGradient3867"><stop
         style="stop-color:#ffffff;stop-opacity:1;"
         offset="0"
         id="stop3869" /><stop
         style="stop-color:#cbcbcb;stop-opacity:1"
         offset="1"
         id="stop3871" /></linearGradient><linearGradient
       inkscape:collect="always"
       id="linearGradient3860"><stop
         style="stop-color:#ffffff;stop-opacity:1;"
         offset="0"
         id="stop3862" /><stop
         style="stop-color:#999999;stop-opacity:1"
         offset="1"
         id="stop3864" /></linearGradient><linearGradient
       inkscape:collect="always"
       id="linearGradient3767"><stop
         style="stop-color:#ffffff;stop-opacity:1;"
         offset="0"
         id="stop3769" /><stop
         style="stop-color:#c4c4c4;stop-opacity:1"
         offset="1"
         id="stop3771" /></linearGradient><linearGradient
       inkscape:collect="always"
       xlink:href="#linearGradient3767"
       id="linearGradient3773"
       x1="82.731499"
       y1="69.670525"
       x2="132.93608"
       y2="134.01724"
       gradientUnits="userSpaceOnUse"
       gradientTransform="translate(-297,-3.5)" /><linearGradient
       inkscape:collect="always"
       xlink:href="#linearGradient3767-5"
       id="linearGradient3773-3"
       x1="82.731499"
       y1="69.670525"
       x2="132.93608"
       y2="134.01724"
       gradientUnits="userSpaceOnUse" /><linearGradient
       inkscape:collect="always"
       id="linearGradient3767-5"><stop
         style="stop-color:#ffffff;stop-opacity:1;"
         offset="0"
         id="stop3769-3" /><stop
         style="stop-color:#c4c4c4;stop-opacity:1"
         offset="1"
         id="stop3771-5" /></linearGradient><linearGradient
       inkscape:collect="always"
       xlink:href="#linearGradient3860"
       id="linearGradient3866"
       x1="71.771339"
       y1="85.316345"
       x2="85.736694"
       y2="148.42563"
       gradientUnits="userSpaceOnUse" /><linearGradient
       inkscape:collect="always"
       xlink:href="#linearGradient3867"
       id="linearGradient3873"
       x1="75"
       y1="92.5"
       x2="91.5"
       y2="144.5"
       gradientUnits="userSpaceOnUse" /><linearGradient
       inkscape:collect="always"
       xlink:href="#linearGradient3867-5"
       id="linearGradient3873-9"
       x1="75"
       y1="92.5"
       x2="91.5"
       y2="144.5"
       gradientUnits="userSpaceOnUse" /><linearGradient
       inkscape:collect="always"
       id="linearGradient3867-5"><stop
         style="stop-color:#ffffff;stop-opacity:1;"
         offset="0"
         id="stop3869-4" /><stop
         style="stop-color:#cbcbcb;stop-opacity:1"
         offset="1"
         id="stop3871-3" /></linearGradient><linearGradient
       inkscape:collect="always"
       xlink:href="#linearGradient4611"
       id="linearGradient4613"
       x1="140"
       y1="104"
       x2="192"
       y2="104"
       gradientUnits="userSpaceOnUse" /><radialGradient
       inkscape:collect="always"
       xlink:href="#linearGradient5036"
       id="radialGradient5038"
       cx="64"
       cy="64"
       fx="64"
       fy="64"
       r="76"
       gradientUnits="userSpaceOnUse"
       gradientTransform="matrix(-2.3997672e-8,1.6842105,-1.6842105,-2.3997673e-8,171.78948,-44.789472)" /><filter
       style="color-interpolation-filters:sRGB;"
       inkscape:label="Blur"
       id="filter929"><feGaussianBlur
         stdDeviation="2 2"
         result="blur"
         id="feGaussianBlur927" /></filter></defs><sodipodi:namedview
     pagecolor="#ffffff"
     bordercolor="#666666"
     borderopacity="1"
     objecttolerance="10"
     gridtolerance="10"
     guidetolerance="10"
     inkscape:pageopacity="0"
     inkscape:pageshadow="2"
     inkscape:window-width="1920"
     inkscape:window-height="986"
     id="namedview5"
     showgrid="true"
     inkscape:zoom="2.8284271"
     inkscape:cx="167.6778"
     inkscape:cy="89.987112"
     inkscape:window-x="-11"
     inkscape:window-y="-11"
     inkscape:window-maximized="1"
     inkscape:current-layer="Layer_1"
     showguides="true"
     inkscape:guide-bbox="true"><inkscape:grid
       type="xygrid"
       id="grid4557"
       empspacing="16"
       spacingx="4"
       spacingy="4" /><sodipodi:guide
       position="140.23828,125"
       orientation="0,1"
       id="guide4585"
       inkscape:locked="false" /><sodipodi:guide
       position="172,39.000003"
       orientation="0,1"
       id="guide4605"
       inkscape:locked="false" /><sodipodi:guide
       position="172,39"
       orientation="-15.92349,15.92349"
       id="guide4619"
       inkscape:locked="false" /></sodipodi:namedview><path
     style="opacity:0.75;fill:#333333;fill-opacity:1;fill-rule:nonzero;stroke:none;filter:url(#filter929)"
     d="m 68.21875,21.34375 c -8.31,0 -15,6.69 -15,15 v 17.007812 h -0.1543 l -31.72851,-13 -0.10938,26 0.15821,-0.06445 c -0.0925,0.676062 -0.15821,1.362194 -0.15821,2.064453 v 89.999998 c 0,8.31 6.69,15 15,15 h 90 c 8.31,0 15,-6.69 15,-15 v -16.9414 l 31.99219,12.93359 -0.0937,-26 -0.0312,0.0312 c 0.0899,-0.66659 0.125,-1.33927 0.125,-2.03125 v -90 c 0,-8.31 -6.69,-15 -15,-15 z m 73.00781,120 h 0.14844 l -0.14844,0.0586 z"
     id="rect3784-6-0"
     inkscape:connector-curvature="0" /><rect
     style="fill:#a59cca;fill-opacity:1;fill-rule:nonzero;stroke:none"
     id="rect3784-6"
     width="120"
     height="120"
     x="52"
     y="20"
     ry="15" /><path
     sodipodi:type="star"
     style="fill:#7568ae;fill-opacity:1;fill-rule:nonzero;stroke:none"
     id="path3804-6"
     sodipodi:sides="3"
     sodipodi:cx="-68.942909"
     sodipodi:cy="44.921787"
     sodipodi:r1="21.291723"
     sodipodi:r2="12.020815"
     sodipodi:arg1="0.0029354176"
     sodipodi:arg2="1.050133"
     inkscape:flatsided="true"
     inkscape:rounded="0"
     inkscape:randomized="0"
     d="m -47.651278,44.984287 -31.991574,18.345344 0.108254,-36.878188 z"
     inkscape:transform-center-x="6.0119879"
     transform="matrix(-1.0002634,0,0,0.7050238,92.336171,108.3511)" /><path
     style="fill:#1a237e;fill-opacity:1;fill-rule:nonzero;stroke:none;stroke-width:0.83976752;opacity:0.2"
     d="M 141.22852,139.5625 140,140.06641 172,153 l -0.004,-1.00195 z"
     id="path3804-6-7"
     inkscape:connector-curvature="0" /><rect
     style="fill:#7568ae;fill-opacity:1;fill-rule:nonzero;stroke:none"
     id="rect3784"
     width="120"
     height="120"
     x="20"
     y="52"
     ry="15" /><path
     style="fill:#ffffff;fill-opacity:1;stroke:none"
     d="M 80 78.375 C 69.50659 78.375 61 86.881589 61 97.375 C 61 104.50887 64.935339 110.72005 70.75 113.96875 L 67 145 L 93 145 L 89.25 113.96875 C 95.064661 110.72005 99 104.50887 99 97.375 C 99 86.881589 90.493411 78.375 80 78.375 z "
     id="path3033" /><path
     style="fill:url(#linearGradient4613);stroke:none;stroke-width:1px;stroke-linecap:butt;stroke-linejoin:miter;stroke-opacity:1;fill-opacity:1;opacity:0.2"
     d="M 140,140.06609 172,153 V 92.769531 l -32,-32.003906 -4.38477,-4.384766 c 0,0 4.38477,3.884766 4.38477,10.619141 v 9.520624 z"
     id="path4559"
     inkscape:connector-curvature="0"
     sodipodi:nodetypes="cccccscc" /><path
     style="fill:url(#radialGradient5038);fill-opacity:1;fill-rule:nonzero;stroke:none"
     d="M 67,19 C 58.69,19 52,25.69 52,34 V 51 H 51.83789 L 20.10742,38 20,64 20.1582,63.93555 C 20.06559,64.612037 20,65.297275 20,66 v 90 c 0,8.31 6.69,15 15,15 h 90 c 8.31,0 15,-6.69 15,-15 V 139.06641 139 h 0.16211 L 140,139.06641 172,152 l -0.10742,-26 -0.043,0.0176 C 171.93804,125.35615 172,124.68639 172,124 V 34 c 0,-8.31 -6.69,-15 -15,-15 z"
     id="rect3784-8"
     inkscape:connector-curvature="0" /><path
     style="fill:#ffffff;fill-opacity:1;fill-rule:nonzero;stroke:none;opacity:0.2"
     d="m 35,52 c -8.31,0 -15,6.69 -15,15 v 1 c 0,-8.31 6.69,-15 15,-15 h 90 c 8.31,0 15,6.69 15,15 v -1 c 0,-8.31 -6.69,-15 -15,-15 z"
     id="rect3784-0"
     inkscape:connector-curvature="0" /><path
     sodipodi:type="star"
     style="fill:#5a4e91;fill-opacity:1;fill-rule:nonzero;stroke:none"
     id="path3804"
     sodipodi:sides="3"
     sodipodi:cx="-68.942909"
     sodipodi:cy="44.921787"
     sodipodi:r1="21.291723"
     sodipodi:r2="12.020815"
     sodipodi:arg1="0.0029354176"
     sodipodi:arg2="1.050133"
     inkscape:flatsided="true"
     inkscape:rounded="0"
     inkscape:randomized="0"
     d="m -47.651278,44.984287 -31.991574,18.345344 0.108254,-36.878188 z"
     inkscape:transform-center-x="-6.01199"
     transform="matrix(1.0002634,0,0,0.7050238,99.663829,20.351103)" /><path
     style="fill:#ffffff;fill-opacity:1;fill-rule:nonzero;stroke:none;stroke-width:0.83976752;opacity:0.2"
     d="M 20.10742,39 20,65 l 0.0039,-0.002 L 20.10742,40 50.77148,52.5625 52,52.066406 Z"
     id="path3804-1"
     inkscape:connector-curvature="0" /><path
     style="fill:#ffffff;fill-opacity:1;fill-rule:nonzero;stroke:none;opacity:0.2"
     d="m 67,20 c -8.31,0 -15,6.69 -15,15 v 1 c 0,-8.31 6.69,-15 15,-15 h 90 c 8.31,0 15,6.69 15,15 v -1 c 0,-8.31 -6.69,-15 -15,-15 z"
     id="rect3784-6-5"
     inkscape:connector-curvature="0" /><path
     style="opacity:0.2;fill:#1a237e;fill-opacity:1;fill-rule:nonzero;stroke:none"
     d="m 20,156 v 1 c 0,8.31 6.69,15 15,15 h 90 c 8.31,0 15,-6.69 15,-15 v -1 c 0,8.31 -6.69,15 -15,15 H 35 c -8.31,0 -15,-6.69 -15,-15 z"
     id="rect3784-68"
     inkscape:connector-curvature="0" /></svg>